<svg xmlns="http://www.w3.org/2000/svg">

  <symbol id="beam" viewBox="0 -0.5 32 12" shape-rendering="crispEdges">
    <path class="white" d="M20 0h4M20 1h4M16 2h4M24 2h4M16 3h4M24 3h4M12 4h4M12 5h4M8 6h4M8 7h4M4 8h4M4 9h4M0 10h4M0 11h4" />
    <path class="dark" d="M0 4h12M16 4h16M0 5h12M16 5h16M0 8h4M8 8h24M0 9h4M8 9h24" />
    <path class="light" d="M0 6h8M12 6h20M0 7h8M12 7h20" />
  </symbol>

  <symbol id="death" viewBox="0 -0.5 32 32" shape-rendering="crispEdges">
    <path stroke="#00aa44" d="M12 0h8M12 1h8M8 2h4M20 2h4M8 3h4M20 3h4M6 4h2M24 4h2M6 5h2M24 5h2M4 6h2M26 6h2M4 7h2M26 7h2M2 8h2M28 8h2M2 9h2M28 9h2M2 10h2M28 10h2M2 11h2M28 11h2M0 12h2M30 12h2M0 13h2M30 13h2M0 14h2M30 14h2M0 15h2M30 15h2M0 16h2M30 16h2M0 17h2M30 17h2M0 18h2M30 18h2M0 19h2M30 19h2M2 20h2M28 20h2M2 21h2M28 21h2M2 22h2M28 22h2M2 23h2M28 23h2M4 24h2M26 24h2M4 25h2M26 25h2M6 26h2M24 26h2M6 27h2M24 27h2M8 28h4M20 28h4M8 29h4M20 29h4M12 30h8M12 31h8" />
    <path stroke="#55ff99" d="M12 2h8M12 3h8M8 4h4M20 4h4M8 5h4M20 5h4M6 6h2M24 6h2M6 7h2M24 7h2M4 8h2M26 8h2M4 9h2M26 9h2M4 10h2M26 10h2M4 11h2M26 11h2M2 12h2M28 12h2M2 13h2M28 13h2M2 14h2M28 14h2M2 15h2M28 15h2M2 16h2M28 16h2M2 17h2M28 17h2M2 18h2M28 18h2M2 19h2M28 19h2M4 20h2M26 20h2M4 21h2M26 21h2M4 22h2M26 22h2M4 23h2M26 23h2M6 24h2M24 24h2M6 25h2M24 25h2M8 26h4M20 26h4M8 27h4M20 27h4M12 28h8M12 29h8" />
    <path stroke="#fcfcfc" d="M12 4h8M12 5h8M8 6h16M8 7h16M6 8h20M6 9h20M6 10h20M6 11h20M4 12h24M4 13h24M4 14h24M4 15h24M4 16h24M4 17h24M4 18h24M4 19h24M6 20h20M6 21h20M6 22h20M6 23h20M8 24h16M8 25h16M12 26h8M12 27h8" />
  </symbol>

  <symbol id="flame" viewBox="0 -0.5 32 32" shape-rendering="crispEdges">
    <path stroke="#d82800" d="M2 4h4M10 4h8M2 5h4M10 5h8M6 6h4M14 6h8M24 6h4M6 7h4M14 7h8M24 7h4M0 8h2M6 8h2M14 8h6M24 8h8M0 9h2M6 9h2M14 9h6M24 9h8M0 10h4M26 10h4M0 11h4M26 11h4M0 12h2M0 13h2M0 18h2M0 19h2M30 20h2M30 21h2M0 22h4M12 22h8M26 22h6M0 23h4M12 23h8M26 23h6M6 24h6M14 24h16M6 25h6M14 25h16M2 26h4M12 26h4M20 26h2M24 26h4M2 27h4M12 27h4M20 27h2M24 27h4" />
    <path stroke="#fc7460" d="M8 8h6M20 8h4M8 9h6M20 9h4M4 10h4M14 10h6M24 10h2M30 10h2M4 11h4M14 11h6M24 11h2M30 11h2M2 12h4M26 12h4M2 13h4M26 13h4M0 14h2M0 15h2M0 16h2M0 17h2M2 18h2M16 18h2M30 18h2M2 19h2M16 19h2M30 19h2M2 20h4M12 20h10M26 20h4M2 21h4M12 21h10M26 21h4M4 22h8M20 22h6M4 23h8M20 23h6" />
    <path stroke="#fcfcfc" d="M8 10h6M20 10h4M8 11h6M20 11h4M6 12h20M30 12h2M6 13h20M30 13h2M2 14h30M2 15h30M2 16h30M2 17h30M4 18h12M18 18h12M4 19h12M18 19h12M6 20h6M22 20h4M6 21h6M22 21h4" />
  </symbol>

  <symbol id="healing" viewBox="0 -0.5 32 32" shape-rendering="crispEdges">
    <path stroke="#008888" d="M4 2h2M4 3h2M0 4h2M8 4h2M18 4h2M0 5h2M8 5h2M18 5h2M22 6h2M22 7h2M2 8h2M6 8h2M2 9h2M6 9h2M10 10h2M10 11h2M0 12h2M6 12h2M24 12h2M0 13h2M6 13h2M24 13h2M4 14h2M16 14h2M4 15h2M16 15h2M18 16h2M18 17h2M14 18h2M22 18h2M14 19h2M22 19h2M10 22h2M16 22h2M20 22h2M10 23h2M16 23h2M20 23h2M24 24h2M24 25h2M16 26h2M20 26h2M28 26h2M16 27h2M20 27h2M28 27h2M0 28h2M10 28h2M14 28h2M18 28h2M0 29h2M10 29h2M14 29h2M18 29h2M16 30h2M22 30h2M26 30h2M16 31h2M22 31h2M26 31h2" />
    <path stroke="#00eedd" d="M2 4h2M6 4h2M2 5h2M6 5h2M2 6h2M6 6h2M10 6h2M2 7h2M6 7h2M10 7h2M8 12h2M12 12h2M8 13h2M12 13h2M8 14h2M12 14h2M8 15h2M12 15h2M16 18h2M20 18h2M28 18h2M16 19h2M20 19h2M28 19h2M4 20h2M16 20h2M20 20h2M24 20h2M4 21h2M16 21h2M20 21h2M24 21h2M22 26h2M26 26h2M22 27h2M26 27h2M16 28h2M22 28h2M26 28h2M16 29h2M22 29h2M26 29h2" />
    <path stroke="#fcfcfc" d="M4 4h2M4 5h2M4 6h2M4 7h2M10 12h2M10 13h2M10 14h2M10 15h2M18 18h2M18 19h2M18 20h2M18 21h2M24 26h2M24 27h2M24 28h2M24 29h2" />
  </symbol>

  <symbol id="poof" viewBox="0 -0.5 32 32" shape-rendering="crispEdges">
    <path stroke="#008888" d="M2 2h2M18 2h2M2 3h2M18 3h2M2 12h2M28 12h2M2 13h2M28 13h2M4 28h2M26 28h2M4 29h2M26 29h2" />
    <path stroke="#00eedd" d="M24 4h2M24 5h2M8 6h2M8 7h2M4 18h2M4 19h2M28 20h2M28 21h2M8 22h2M8 23h2M14 24h2M14 25h2" />
    <path stroke="#fcfcfc" d="M18 10h2M18 11h2M10 12h2M10 13h2M14 14h2M22 14h2M14 15h2M22 15h2M10 18h2M20 18h2M10 19h2M20 19h2" />
  </symbol>

  <symbol id="protect" viewBox="0 -0.5 16 32" shape-rendering="crispEdges">
    <path stroke="#ff3300" d="M0 0h2M8 0h2M0 1h2M8 1h2M0 2h2M8 2h2M0 3h2M8 3h2M0 8h2M8 8h2M0 9h2M8 9h2M0 10h2M8 10h2M0 11h2M8 11h2M0 16h2M8 16h2M0 17h2M8 17h2M0 18h2M8 18h2M0 19h2M8 19h2M0 24h2M8 24h2M0 25h2M8 25h2M0 26h2M8 26h2M0 27h2M8 27h2" />
    <path stroke="#ff7755" d="M2 0h2M6 0h2M2 1h2M6 1h2M2 2h2M6 2h2M2 3h2M6 3h2M2 4h2M6 4h2M2 5h2M6 5h2M2 6h2M6 6h2M2 7h2M6 7h2M2 8h2M6 8h2M2 9h2M6 9h2M2 10h2M6 10h2M2 11h2M6 11h2M2 12h2M6 12h2M2 13h2M6 13h2M2 14h2M6 14h2M2 15h2M6 15h2M2 16h2M6 16h2M2 17h2M6 17h2M2 18h2M6 18h2M2 19h2M6 19h2M2 20h2M6 20h2M2 21h2M6 21h2M2 22h2M6 22h2M2 23h2M6 23h2M2 24h2M6 24h2M2 25h2M6 25h2M2 26h2M6 26h2M2 27h2M6 27h2M2 28h2M6 28h2M2 29h2M6 29h2M2 30h2M6 30h2M2 31h2M6 31h2" />
    <path stroke="#fcfcfc" d="M4 0h2M4 1h2M4 2h2M4 3h2M4 4h2M4 5h2M4 6h2M4 7h2M4 8h2M4 9h2M4 10h2M4 11h2M4 12h2M4 13h2M4 14h2M4 15h2M4 16h2M4 17h2M4 18h2M4 19h2M4 20h2M4 21h2M4 22h2M4 23h2M4 24h2M4 25h2M4 26h2M4 27h2M4 28h2M4 29h2M4 30h2M4 31h2" />
  </symbol>

  <symbol id="star" viewBox="0 -0.5 32 32" shape-rendering="crispEdges">
    <path stroke="#00aa00" d="M21 2h2M21 3h2M11 4h2M11 5h2M15 8h2M27 8h2M15 9h2M27 9h2M5 10h2M15 10h2M5 11h2M15 11h2M11 14h2M19 14h4M11 15h2M19 15h4M9 16h2M9 17h2M15 20h2M27 20h2M15 21h2M27 21h2M3 22h2M15 22h4M3 23h2M15 23h4M21 26h2M21 27h2M9 28h2M9 29h2" />
    <path stroke="#55dd55" d="M21 4h2M21 5h2M11 6h2M19 6h2M23 6h2M11 7h2M19 7h2M23 7h2M9 8h2M13 8h2M17 8h2M25 8h2M9 9h2M13 9h2M17 9h2M25 9h2M7 10h2M19 10h2M23 10h2M7 11h2M19 11h2M23 11h2M9 12h2M13 12h2M21 12h2M9 13h2M13 13h2M21 13h2M21 16h2M21 17h2M9 18h2M19 18h2M23 18h2M9 19h2M19 19h2M23 19h2M7 20h2M11 20h2M17 20h2M25 20h2M7 21h2M11 21h2M17 21h2M25 21h2M5 22h2M13 22h2M19 22h2M23 22h2M5 23h2M13 23h2M19 23h2M23 23h2M7 24h2M11 24h2M21 24h2M7 25h2M11 25h2M21 25h2M9 26h2M9 27h2" />
    <path stroke="#fcfcfc" d="M21 6h2M21 7h2M11 8h2M19 8h6M11 9h2M19 9h6M9 10h6M21 10h2M9 11h6M21 11h2M11 12h2M11 13h2M21 18h2M21 19h2M9 20h2M19 20h6M9 21h2M19 21h6M7 22h6M21 22h2M7 23h6M21 23h2M9 24h2M9 25h2" />
  </symbol>

  <symbol id="status" viewBox="0 -0.5 32 32" shape-rendering="crispEdges">
    <path stroke="#0055ff" d="M6 4h2M12 4h6M22 4h6M6 5h2M12 5h6M22 5h6M16 6h4M16 7h4M4 8h10M4 9h10M12 10h2M12 11h2M4 12h6M4 13h6M0 14h8M0 15h8M4 16h8M4 17h8M0 18h2M6 18h2M0 19h2M6 19h2M2 20h10M2 21h10M12 22h4M28 22h2M12 23h4M28 23h2M4 24h2M8 24h2M20 24h4M26 24h4M4 25h2M8 25h2M20 25h4M26 25h4M24 26h2M24 27h2" />
    <path stroke="#6688ff" d="M18 4h2M18 5h2M20 6h2M26 6h4M20 7h2M26 7h4M14 8h6M28 8h4M14 9h6M28 9h4M14 10h2M30 10h2M14 11h2M30 11h2M10 12h8M28 12h2M10 13h8M28 13h2M8 14h6M8 15h6M12 16h4M28 16h2M12 17h4M28 17h2M8 18h4M8 19h4M12 20h6M20 20h2M28 20h4M12 21h6M20 21h2M28 21h4M16 22h8M26 22h2M16 23h8M26 23h2M10 24h2M16 24h4M10 25h2M16 25h4" />
    <path stroke="#fcfcfc" d="M22 6h4M22 7h4M20 8h8M20 9h8M16 10h14M16 11h14M18 12h10M18 13h10M14 14h18M14 15h18M16 16h12M16 17h12M12 18h18M12 19h18M18 20h2M22 20h6M18 21h2M22 21h6M24 22h2M24 23h2" />
  </symbol>
</svg>